<svg width="64" height="64" viewBox="0 0 64 64" fill="none" xmlns="http://www.w3.org/2000/svg">
<path d="M21 45.2432V46.7432L15.876 54H11.4531L17.1113 45.9863L11.3486 37.75H15.7578L21 45.2432Z" fill="black"/>
<path d="M41 45.2432V46.7432L35.876 54H31.4531L37.1113 45.9863L31.3486 37.75H35.7578L41 45.2432Z" fill="black"/>
<path d="M60 45.2432V46.7432L54.876 54H50.4531L56.1113 45.9863L50.3486 37.75H54.7578L60 45.2432Z" fill="black"/>
<path d="M10.2412 41.8438L7.41895 45.9473L10.2529 50.1689L8.20703 53.252L3.74805 46.6074L3.75488 45.2451L8.21387 38.7598L10.2412 41.8438Z" fill="black"/>
<path d="M30.2412 41.8438L27.4189 45.9473L30.2529 50.1689L28.207 53.252L23.748 46.6074L23.7549 45.2451L28.2139 38.7598L30.2412 41.8438Z" fill="black"/>
<path d="M50.2412 41.8438L47.4189 45.9473L50.2529 50.1689L48.207 53.252L43.748 46.6074L43.7549 45.2451L48.2139 38.7598L50.2412 41.8438Z" fill="black"/>
<path d="M40.2451 19.7178L30.3418 33H25.2314L35.1436 19.7061L25.0176 6H30.1104L40.2451 19.7178Z" fill="black"/>
<path d="M47.8135 18.3506L48.001 18.6123L47.9961 20.5117L47.8086 20.7725L38.9961 33H34.0469L43.7383 19.5527L34.0596 6H38.9941L47.8135 18.3506Z" fill="black"/>
<path d="M24.7988 10.1836L25.1787 10.751L19.1523 19.3779L25.208 28.2607L22.834 31.7822L14.998 20.2881L15.0068 18.7314L15.0078 18.4199L22.8242 7.22754L24.7988 10.1836Z" fill="black"/>
</svg>
